<?xml version="1.0" encoding="utf-8"?>
<svg xmlns="http://www.w3.org/2000/svg" version="1.1" width="2000" height="800">

<line x1="100" y1="400" x2="200" y2="400" stroke="rgb(0,0,0)" />
<text x="150" y="400" fill="rgb(255,0,0)" >1</text>
<line x1="200" y1="400" x2="300" y2="400" stroke="rgb(0,0,0)" />
<text x="250" y="400" fill="rgb(255,0,0)" >1</text>
<line x1="300" y1="400" x2="300" y2="200" stroke="rgb(0,0,0)" />
<text x="300" y="300" fill="rgb(255,0,0)" >1</text>
<line x1="300" y1="200" x2="400" y2="200" stroke="rgb(0,0,0)" />
<text x="350" y="200" fill="rgb(255,0,0)" >1</text>
<line x1="300" y1="400" x2="400" y2="400" stroke="rgb(0,0,0)" />
<text x="350" y="400" fill="rgb(255,0,0)" >1</text>
<line x1="400" y1="200" x2="500" y2="200" stroke="rgb(0,0,0)" />
<text x="450" y="200" fill="rgb(255,0,0)" >1</text>
<line x1="400" y1="400" x2="500" y2="400" stroke="rgb(0,0,0)" />
<text x="450" y="400" fill="rgb(255,0,0)" >1</text>
<line x1="500" y1="200" x2="600" y2="200" stroke="rgb(0,0,0)" />
<text x="550" y="200" fill="rgb(255,0,0)" >1</text>
<line x1="500" y1="400" x2="600" y2="400" stroke="rgb(0,0,0)" />
<text x="550" y="400" fill="rgb(255,0,0)" >1</text>
<line x1="600" y1="200" x2="700" y2="200" stroke="rgb(0,0,0)" />
<text x="650" y="200" fill="rgb(255,0,0)" >1</text>
<line x1="600" y1="400" x2="700" y2="400" stroke="rgb(0,0,0)" />
<text x="650" y="400" fill="rgb(255,0,0)" >1</text>
<line x1="700" y1="400" x2="800" y2="400" stroke="rgb(0,0,0)" />
<text x="750" y="400" fill="rgb(255,0,0)" >1</text>
<line x1="800" y1="500" x2="800" y2="400" stroke="rgb(0,0,0)" />
<text x="800" y="450" fill="rgb(255,0,0)" >1</text>
<line x1="800" y1="400" x2="800" y2="300" stroke="rgb(0,0,0)" />
<text x="800" y="350" fill="rgb(255,0,0)" >1</text>
<line x1="800" y1="300" x2="700" y2="200" stroke="rgb(0,0,0)" />
<text x="750" y="250" fill="rgb(255,0,0)" >1</text>
<line x1="700" y1="200" x2="900" y2="200" stroke="rgb(0,0,0)" />
<text x="800" y="200" fill="rgb(255,0,0)" >1</text>
<line x1="700" y1="200" x2="800" y2="100" stroke="rgb(0,0,0)" />
<text x="750" y="150" fill="rgb(255,0,0)" >1</text>
<line x1="800" y1="100" x2="900" y2="200" stroke="rgb(0,0,0)" />
<text x="850" y="150" fill="rgb(255,0,0)" >1</text>
<line x1="900" y1="200" x2="1000" y2="200" stroke="rgb(0,0,0)" />
<text x="950" y="200" fill="rgb(255,0,0)" >1</text>
<line x1="800" y1="400" x2="900" y2="400" stroke="rgb(0,0,0)" />
<text x="850" y="400" fill="rgb(255,0,0)" >1</text>
<line x1="1000" y1="200" x2="1100" y2="200" stroke="rgb(0,0,0)" />
<text x="1050" y="200" fill="rgb(255,0,0)" >1</text>
<line x1="900" y1="400" x2="1000" y2="400" stroke="rgb(0,0,0)" />
<text x="950" y="400" fill="rgb(255,0,0)" >1</text>
<line x1="1100" y1="200" x2="1200" y2="200" stroke="rgb(0,0,0)" />
<text x="1150" y="200" fill="rgb(255,0,0)" >1</text>
<line x1="1000" y1="400" x2="1100" y2="400" stroke="rgb(0,0,0)" />
<text x="1050" y="400" fill="rgb(255,0,0)" >1</text>
<line x1="1200" y1="200" x2="1300" y2="200" stroke="rgb(0,0,0)" />
<text x="1250" y="200" fill="rgb(255,0,0)" >1</text>
<line x1="1100" y1="400" x2="1200" y2="400" stroke="rgb(0,0,0)" />
<text x="1150" y="400" fill="rgb(255,0,0)" >1</text>
<line x1="1200" y1="400" x2="1300" y2="400" stroke="rgb(0,0,0)" />
<text x="1250" y="400" fill="rgb(255,0,0)" >1</text>
<line x1="1300" y1="200" x2="1300" y2="400" stroke="rgb(0,0,0)" />
<text x="1300" y="300" fill="rgb(255,0,0)" >1</text>
<line x1="1300" y1="400" x2="1400" y2="400" stroke="rgb(0,0,0)" />
<text x="1350" y="400" fill="rgb(255,0,0)" >1</text>
<circle cx="100" cy="400" r="30" fill="none" stroke="rgb(0,0,0)" stroke-width="3" />
<circle cx="100" cy="400" r="30" fill="rgb(255,255,255)" />
<text x="70" y="405" fill="rgb(0,0,0)" >La_Defense</text>
<circle cx="200" cy="400" r="30" fill="none" stroke="rgb(0,0,0)" stroke-width="3" />
<circle cx="200" cy="400" r="30" fill="rgb(255,255,255)" />
<text x="170" y="405" fill="rgb(0,0,0)" >Porte-Maillot</text>
<circle cx="300" cy="400" r="30" fill="none" stroke="rgb(0,0,0)" stroke-width="3" />
<circle cx="300" cy="400" r="30" fill="rgb(255,255,255)" />
<text x="270" y="405" fill="rgb(0,0,0)" >CDG</text>
<circle cx="300" cy="200" r="30" fill="none" stroke="rgb(0,0,0)" stroke-width="3" />
<circle cx="300" cy="200" r="30" fill="rgb(255,255,255)" />
<text x="270" y="205" fill="rgb(0,0,0)" >Troca</text>
<circle cx="400" cy="200" r="30" fill="none" stroke="rgb(0,0,0)" stroke-width="3" />
<circle cx="400" cy="200" r="30" fill="rgb(255,255,255)" />
<text x="370" y="205" fill="rgb(0,0,0)" >Bir</text>
<circle cx="400" cy="400" r="30" fill="none" stroke="rgb(0,0,0)" stroke-width="3" />
<circle cx="400" cy="400" r="30" fill="rgb(255,255,255)" />
<text x="370" y="405" fill="rgb(0,0,0)" >Franklin</text>
<circle cx="500" cy="400" r="30" fill="none" stroke="rgb(0,0,0)" stroke-width="3" />
<circle cx="500" cy="400" r="30" fill="rgb(255,255,255)" />
<text x="470" y="405" fill="rgb(0,0,0)" >Champs-Elysees</text>
<circle cx="500" cy="200" r="30" fill="none" stroke="rgb(0,0,0)" stroke-width="3" />
<circle cx="500" cy="200" r="30" fill="rgb(255,255,255)" />
<text x="470" y="205" fill="rgb(0,0,0)" >Grenelle</text>
<circle cx="600" cy="200" r="30" fill="none" stroke="rgb(0,0,0)" stroke-width="3" />
<circle cx="600" cy="200" r="30" fill="rgb(255,255,255)" />
<text x="570" y="205" fill="rgb(0,0,0)" >Pasteur</text>
<circle cx="600" cy="400" r="30" fill="none" stroke="rgb(0,0,0)" stroke-width="3" />
<circle cx="600" cy="400" r="30" fill="rgb(255,255,255)" />
<text x="570" y="405" fill="rgb(0,0,0)" >Concorde</text>
<circle cx="700" cy="400" r="30" fill="none" stroke="rgb(0,0,0)" stroke-width="3" />
<circle cx="700" cy="400" r="30" fill="rgb(255,255,255)" />
<text x="670" y="405" fill="rgb(0,0,0)" >Louvre</text>
<circle cx="800" cy="500" r="30" fill="none" stroke="rgb(0,0,0)" stroke-width="3" />
<circle cx="800" cy="500" r="30" fill="rgb(255,255,255)" />
<text x="770" y="505" fill="rgb(0,0,0)" >Etienne</text>
<circle cx="800" cy="400" r="30" fill="none" stroke="rgb(0,0,0)" stroke-width="3" />
<circle cx="800" cy="400" r="30" fill="rgb(255,255,255)" />
<text x="770" y="405" fill="rgb(0,0,0)" >Chatelet</text>
<circle cx="800" cy="300" r="30" fill="none" stroke="rgb(0,0,0)" stroke-width="3" />
<circle cx="800" cy="300" r="30" fill="rgb(255,255,255)" />
<text x="770" y="305" fill="rgb(0,0,0)" >Saint-Michel</text>
<circle cx="700" cy="200" r="30" fill="none" stroke="rgb(0,0,0)" stroke-width="3" />
<circle cx="700" cy="200" r="30" fill="rgb(255,255,255)" />
<text x="670" y="205" fill="rgb(0,0,0)" >Montparnasse</text>
<circle cx="800" cy="100" r="30" fill="none" stroke="rgb(0,0,0)" stroke-width="3" />
<circle cx="800" cy="100" r="30" fill="rgb(255,255,255)" />
<text x="770" y="105" fill="rgb(0,0,0)" >Vavin</text>
<circle cx="900" cy="200" r="30" fill="none" stroke="rgb(0,0,0)" stroke-width="3" />
<circle cx="900" cy="200" r="30" fill="rgb(255,255,255)" />
<text x="870" y="205" fill="rgb(0,0,0)" >Raspail</text>
<circle cx="1000" cy="200" r="30" fill="none" stroke="rgb(0,0,0)" stroke-width="3" />
<circle cx="1000" cy="200" r="30" fill="rgb(255,255,255)" />
<text x="970" y="205" fill="rgb(0,0,0)" >Denfert</text>
<circle cx="900" cy="400" r="30" fill="none" stroke="rgb(0,0,0)" stroke-width="3" />
<circle cx="900" cy="400" r="30" fill="rgb(255,255,255)" />
<text x="870" y="405" fill="rgb(0,0,0)" >Hotel_de_ville</text>
<circle cx="1100" cy="200" r="30" fill="none" stroke="rgb(0,0,0)" stroke-width="3" />
<circle cx="1100" cy="200" r="30" fill="rgb(255,255,255)" />
<text x="1070" y="205" fill="rgb(0,0,0)" >Place_d'Italie</text>
<circle cx="1000" cy="400" r="30" fill="none" stroke="rgb(0,0,0)" stroke-width="3" />
<circle cx="1000" cy="400" r="30" fill="rgb(255,255,255)" />
<text x="970" y="405" fill="rgb(0,0,0)" >Bastille</text>
<circle cx="1200" cy="200" r="30" fill="none" stroke="rgb(0,0,0)" stroke-width="3" />
<circle cx="1200" cy="200" r="30" fill="rgb(255,255,255)" />
<text x="1170" y="205" fill="rgb(0,0,0)" >Bercy</text>
<circle cx="1100" cy="400" r="30" fill="none" stroke="rgb(0,0,0)" stroke-width="3" />
<circle cx="1100" cy="400" r="30" fill="rgb(255,255,255)" />
<text x="1070" y="405" fill="rgb(0,0,0)" >Gare_de_Lyon</text>
<circle cx="1300" cy="200" r="30" fill="none" stroke="rgb(0,0,0)" stroke-width="3" />
<circle cx="1300" cy="200" r="30" fill="rgb(255,255,255)" />
<text x="1270" y="205" fill="rgb(0,0,0)" >Daumesnil</text>
<circle cx="1200" cy="400" r="30" fill="none" stroke="rgb(0,0,0)" stroke-width="3" />
<circle cx="1200" cy="400" r="30" fill="rgb(255,255,255)" />
<text x="1170" y="405" fill="rgb(0,0,0)" >Diderot</text>
<circle cx="1300" cy="400" r="30" fill="none" stroke="rgb(0,0,0)" stroke-width="3" />
<circle cx="1300" cy="400" r="30" fill="rgb(255,255,255)" />
<text x="1270" y="405" fill="rgb(0,0,0)" >Nation</text>
<circle cx="1400" cy="400" r="30" fill="none" stroke="rgb(0,0,0)" stroke-width="3" />
<circle cx="1400" cy="400" r="30" fill="rgb(255,255,255)" />
<text x="1370" y="405" fill="rgb(0,0,0)" >Chateau_de_Vincennes</text>


</svg>
